<svg width="12" height="10" viewBox="0 0 12 10" fill="none" xmlns="http://www.w3.org/2000/svg">
<path d="M0.716797 0.5V9.5H5.17702V7.75H6.66377V9.5H11.124V0.5H0.716797ZM2.20354 1.5H3.69028V2.5H2.20354V1.5ZM5.17702 1.5H6.66377V2.5H5.17702V1.5ZM8.15051 1.5H9.63725V2.5H8.15051V1.5ZM2.20354 3.5H3.69028V4.5H2.20354V3.5ZM5.17702 3.5H6.66377V4.5H5.17702V3.5ZM8.15051 3.5H9.63725V4.5H8.15051V3.5ZM2.20354 5.5H3.69028V6.5H2.20354V5.5ZM5.17702 5.5H6.66377V6.5H5.17702V5.5ZM8.15051 5.5H9.63725V6.5H8.15051V5.5ZM2.20354 7.5H3.69028V8.5H2.20354V7.5ZM8.15051 7.5H9.63725V8.5H8.15051V7.5Z" fill="#A7A7A7"/>
</svg>
