<svg width="18" height="18" viewBox="0 0 18 18" fill="none" xmlns="http://www.w3.org/2000/svg">
<path d="M10.2864 7.71333C9.60384 7.03103 8.67822 6.64774 7.71309 6.64774C6.74797 6.64774 5.82235 7.03103 5.13976 7.71333L2.56559 10.2867C1.88299 10.9693 1.49951 11.8951 1.49951 12.8604C1.49951 13.8258 1.88299 14.7516 2.56559 15.4342C3.24819 16.1168 4.174 16.5002 5.13934 16.5002C6.10469 16.5002 7.03049 16.1168 7.71309 15.4342L8.99976 14.1475" stroke="black" stroke-width="1.66667" stroke-linecap="round" stroke-linejoin="round"/>
<path d="M7.71289 10.2867C8.39548 10.969 9.3211 11.3523 10.2862 11.3523C11.2513 11.3523 12.177 10.969 12.8596 10.2867L15.4337 7.71334C16.1163 7.03074 16.4998 6.10493 16.4998 5.13959C16.4998 4.17424 16.1163 3.24844 15.4337 2.56584C14.7511 1.88324 13.8253 1.49976 12.86 1.49976C11.8946 1.49976 10.9688 1.88324 10.2862 2.56584L8.99956 3.8525" stroke="black" stroke-width="1.66667" stroke-linecap="round" stroke-linejoin="round"/>
</svg>
